<?xml version="1.0" encoding="UTF-8"?>
<!DOCTYPE svg PUBLIC "-//W3C//DTD SVG 1.1//EN" "http://www.w3.org/Graphics/SVG/1.1/DTD/svg11.dtd">
<svg xmlns="http://www.w3.org/2000/svg" version="1.1" width="64px" height="64px" style="shape-rendering:geometricPrecision; text-rendering:geometricPrecision; image-rendering:optimizeQuality; fill-rule:evenodd; clip-rule:evenodd" xmlns:xlink="http://www.w3.org/1999/xlink">
<g><path style="opacity:0.999" fill="#dfdfdf" d="M 45.5,41.5 C 46.791,41.2627 47.791,41.596 48.5,42.5C 41.315,50.7949 32.6484,52.6282 22.5,48C 17.3426,45.3488 14.3426,41.1821 13.5,35.5C 13.4372,30.7971 13.7705,26.1304 14.5,21.5C 14.427,19.9731 15.0937,18.9731 16.5,18.5C 17.9063,18.0269 18.573,17.0269 18.5,15.5C 19.7653,14.5207 21.0986,13.5207 22.5,12.5C 23.4077,13.79 23.241,15.1233 22,16.5C 20.0052,34.0065 27.8385,42.3398 45.5,41.5 Z"/></g>
<g><path style="opacity:0.999" fill="#b7b7b7" d="M 31.5,13.5 C 32.8816,14.8005 34.5483,15.6339 36.5,16C 35.2283,17.3068 34.2283,18.8068 33.5,20.5C 32.5,19.1667 31.5,19.1667 30.5,20.5C 29.7717,18.8068 28.7717,17.3068 27.5,16C 29.3197,15.7996 30.653,14.9663 31.5,13.5 Z"/></g>
<g><path style="opacity:0.671" fill="#646464" d="M 18.5,15.5 C 18.573,17.0269 17.9063,18.0269 16.5,18.5C 16.427,16.9731 17.0937,15.9731 18.5,15.5 Z"/></g>
<g><path style="opacity:0.997" fill="#b8b8b8" d="M 43.5,16.5 C 45.1824,18.3468 47.1824,19.8468 49.5,21C 47.9262,22.8259 47.0929,24.9925 47,27.5C 45,24.8333 43,24.8333 41,27.5C 40.9071,24.9925 40.0738,22.8259 38.5,21C 40.7669,20.1065 42.4336,18.6065 43.5,16.5 Z"/></g>
<g><path style="opacity:0.553" fill="#858585" d="M 14.5,21.5 C 13.7705,26.1304 13.4372,30.7971 13.5,35.5C 12.8389,33.866 12.5056,32.0326 12.5,30C 12.3603,26.8502 13.027,24.0169 14.5,21.5 Z"/></g>
<g><path style="opacity:0.996" fill="#959595" d="M 33.5,26.5 C 37.5794,27.7297 38.4128,30.0631 36,33.5C 35,32.1667 34,32.1667 33,33.5C 32.7265,31.6711 31.8932,30.1711 30.5,29C 32.1193,28.7645 33.1193,27.9311 33.5,26.5 Z"/></g>
<g><path style="opacity:0.741" fill="#6d6d6d" d="M 48.5,42.5 C 47.791,41.596 46.791,41.2627 45.5,41.5C 47.0439,40.086 48.7106,39.7526 50.5,40.5C 50.1445,41.5223 49.4778,42.189 48.5,42.5 Z"/></g>
</svg>
